<svg width="135" height="40" viewBox="0 0 135 40" fill="none" xmlns="http://www.w3.org/2000/svg">
<path d="M88.35 14.9951H85.8845V8.14211H88.2844C90.3094 8.14211 91.7062 9.53895 91.7062 11.5827C91.7062 13.5983 90.3375 14.9951 88.35 14.9951ZM88.1719 9.24833H87.0844V13.8889H88.2375C89.6063 13.8889 90.4406 13.0076 90.4406 11.5827C90.4406 10.1296 89.5875 9.24833 88.1719 9.24833ZM94.7271 15.117C93.349 15.117 92.3834 14.1139 92.3834 12.6795C92.3834 11.2264 93.3303 10.2233 94.6896 10.2233C96.0771 10.2233 96.9583 11.1514 96.9583 12.5951V12.942L93.4709 12.9514C93.5553 13.767 93.9865 14.1795 94.7459 14.1795C95.374 14.1795 95.7865 13.9357 95.9177 13.4951H96.9771C96.7802 14.5076 95.9365 15.117 94.7271 15.117ZM94.699 11.1608C94.024 11.1608 93.6115 11.5264 93.499 12.2202H95.824C95.824 11.5827 95.3834 11.1608 94.699 11.1608ZM98.9848 14.9951L97.1473 10.3639H98.366L99.1722 12.492C99.3691 13.0451 99.5285 13.5233 99.5847 13.7764C99.6504 13.4858 99.8191 12.9983 100.016 12.492L100.86 10.3639H102.041L100.11 14.9951H98.9848Z" fill="#333333"/>
<path d="M87.0657 23.4982H85.8845V16.6452H87.0751L90.2906 21.5013V16.6452H91.4719V23.4982H90.2906L87.0657 18.642V23.4982ZM94.8919 23.6201C93.5138 23.6201 92.5482 22.617 92.5482 21.1826C92.5482 19.7295 93.4951 18.7264 94.8544 18.7264C96.2419 18.7264 97.1231 19.6545 97.1231 21.0982V21.4451L93.6357 21.4545C93.7201 22.2701 94.1513 22.6826 94.9107 22.6826C95.5388 22.6826 95.9513 22.4388 96.0825 21.9982H97.1419C96.945 23.0107 96.1013 23.6201 94.8919 23.6201ZM94.8638 19.6639C94.1888 19.6639 93.7763 20.0295 93.6638 20.7232H95.9888C95.9888 20.0857 95.5481 19.6639 94.8638 19.6639ZM98.6341 23.4982H97.331L98.9248 21.2295L97.331 18.867H98.6623L99.6841 20.442L100.668 18.867H101.953L100.378 21.2107L101.906 23.4982H100.593L99.6091 21.9701L98.6341 23.4982ZM104.392 23.4982H103.249V19.8233H102.358V18.867H103.249V17.4233H104.392V18.867H105.292V19.8233H104.392V23.4982Z" fill="#333333"/>
<path d="M89.6344 29.2018H87.0844V32.0049H85.8845V25.1519H90.1219V26.2581H87.0844V28.1237H89.6344V29.2018ZM90.4059 29.6799C90.4059 28.2362 91.4465 27.2425 92.8809 27.2425C94.3152 27.2425 95.3558 28.2362 95.3558 29.6799C95.3558 31.1237 94.3152 32.1174 92.8809 32.1174C91.4465 32.1174 90.4059 31.1237 90.4059 29.6799ZM91.5496 29.6799C91.5496 30.5237 92.0934 31.0955 92.8809 31.0955C93.6683 31.0955 94.2121 30.5237 94.2121 29.6799C94.2121 28.8362 93.6683 28.2643 92.8809 28.2643C92.0934 28.2643 91.5496 28.8362 91.5496 29.6799ZM99.2931 27.3737H100.437V32.0049H99.3775L99.2931 31.3862C99.0118 31.8268 98.4119 32.1268 97.7931 32.1268C96.7244 32.1268 96.0963 31.4049 96.0963 30.2705V27.3737H97.24V29.8674C97.24 30.7487 97.5869 31.1049 98.2244 31.1049C98.9462 31.1049 99.2931 30.683 99.2931 29.8018V27.3737ZM102.762 32.0049H101.618V27.3737H102.677L102.771 27.9737C103.062 27.505 103.624 27.2331 104.252 27.2331C105.415 27.2331 106.015 27.955 106.015 29.1549V32.0049H104.871V29.4268C104.871 28.6487 104.487 28.2737 103.896 28.2737C103.193 28.2737 102.762 28.7612 102.762 29.5112V32.0049ZM109.042 32.1268C107.701 32.1268 106.867 31.1424 106.867 29.7081C106.867 28.2643 107.711 27.2331 109.107 27.2331C109.754 27.2331 110.326 27.505 110.617 27.9643V25.03H111.751V32.0049H110.701L110.626 31.283C110.345 31.8174 109.745 32.1268 109.042 32.1268ZM109.295 31.0768C110.092 31.0768 110.607 30.5049 110.607 29.6706C110.607 28.8362 110.092 28.255 109.295 28.255C108.498 28.255 108.011 28.8456 108.011 29.6706C108.011 30.4955 108.498 31.0768 109.295 31.0768ZM114.321 32.1268C113.337 32.1268 112.737 31.5549 112.737 30.683C112.737 29.8299 113.355 29.2956 114.452 29.2112L115.84 29.1081V29.0049C115.84 28.3768 115.465 28.1237 114.884 28.1237C114.209 28.1237 113.834 28.405 113.834 28.8924H112.859C112.859 27.8893 113.684 27.2331 114.94 27.2331C116.187 27.2331 116.955 27.9081 116.955 29.1924V32.0049H115.952L115.868 31.3205C115.671 31.7986 115.043 32.1268 114.321 32.1268ZM114.696 31.2643C115.399 31.2643 115.849 30.8424 115.849 30.1299V29.8862L114.884 29.9612C114.171 30.0268 113.899 30.2612 113.899 30.6362C113.899 31.058 114.18 31.2643 114.696 31.2643ZM119.59 32.0049H118.446V28.33H117.556V27.3737H118.446V25.93H119.59V27.3737H120.49V28.33H119.59V32.0049ZM121.773 26.4456C121.379 26.4456 121.07 26.1363 121.07 25.7519C121.07 25.3675 121.379 25.0675 121.773 25.0675C122.148 25.0675 122.457 25.3675 122.457 25.7519C122.457 26.1363 122.148 26.4456 121.773 26.4456ZM121.201 32.0049V27.3737H122.345V32.0049H121.201ZM123.254 29.6799C123.254 28.2362 124.295 27.2425 125.729 27.2425C127.164 27.2425 128.204 28.2362 128.204 29.6799C128.204 31.1237 127.164 32.1174 125.729 32.1174C124.295 32.1174 123.254 31.1237 123.254 29.6799ZM124.398 29.6799C124.398 30.5237 124.942 31.0955 125.729 31.0955C126.517 31.0955 127.061 30.5237 127.061 29.6799C127.061 28.8362 126.517 28.2643 125.729 28.2643C124.942 28.2643 124.398 28.8362 124.398 29.6799ZM130.255 32.0049H129.111V27.3737H130.17L130.264 27.9737C130.555 27.505 131.117 27.2331 131.745 27.2331C132.908 27.2331 133.508 27.955 133.508 29.1549V32.0049H132.364V29.4268C132.364 28.6487 131.98 28.2737 131.389 28.2737C130.686 28.2737 130.255 28.7612 130.255 29.5112V32.0049Z" fill="#333333"/>
<path d="M24.0178 20.1871C24.0178 27.6312 17.9838 33.6652 10.5397 33.6652H0V6.70904H10.5397C17.9838 6.70904 24.0178 12.7431 24.0178 20.1855V20.1871Z" fill="#2FB36D"/>
<path d="M27.5228 7.34483L50.0511 33.6687H27.5228V7.34483Z" fill="#F4B41A"/>
<path d="M51.5372 6.71054V33.0344L29.0088 6.71054H51.5372Z" fill="#F4B41A"/>
<path d="M79.0594 6.71054V16.011H67.0505V33.6667H55.0416V6.71054H79.0594Z" fill="#4EC2C7"/>
<path d="M76.0455 17.874H68.9126V25.007H76.0455V17.874Z" fill="#4EC2C7"/>
</svg>
